# Blender v2.91.2 OBJ File: ''
# www.blender.org
o Plane
v 0.068509 0.085832 -0.334395
v -0.037672 0.054478 -0.205602
v 0.004595 0.122179 -0.170547
v 0.043328 0.118122 -0.236151
v -0.015021 0.064677 -0.109165
v 0.007917 0.107452 -0.101759
v 0.033240 0.072573 -0.043306
v 0.045306 0.119843 -0.067696
v 0.122249 0.096255 -0.009563
v 0.105934 0.136439 -0.050651
v 0.178122 0.101746 -0.062219
v 0.122286 0.130566 -0.110915
v 0.211937 0.129739 -0.156118
v 0.136695 0.127103 -0.180627
v 0.122589 0.114487 -0.242136
v 0.175546 0.098507 -0.287325
v 0.117597 -0.108344 0.099593
v 0.110024 -0.102771 0.221061
v 0.057507 -0.116818 0.269126
v 0.055960 -0.108589 0.138782
v 0.167882 -0.094659 0.010120
v 0.093735 -0.105739 0.012502
v 0.159848 -0.084812 -0.107720
v 0.082542 -0.092518 -0.095064
v 0.123578 -0.064226 -0.198964
v 0.021225 -0.084949 -0.145793
v 0.062445 -0.063760 -0.261358
v -0.087609 -0.083157 -0.200407
v -0.014410 -0.039143 -0.315351
v -0.075408 -0.050285 -0.287956
v -0.043532 -0.117453 -0.084628
v -0.076202 -0.115379 -0.103617
v 0.010852 -0.116374 -0.027244
v 0.006345 -0.142283 0.052411
v -0.036475 -0.117900 0.273511
v -0.041408 -0.139401 0.126993
v -0.159207 0.063553 -0.277913
v -0.118315 0.057218 -0.155453
v -0.212685 0.065753 -0.239385
v -0.197270 0.063885 -0.142055
v -0.132411 0.092159 -0.042256
v -0.068317 0.097898 0.037524
v 0.187953 0.079565 -0.065978
v 0.235803 0.045727 -0.173144
v 0.246793 0.008191 -0.101854
v 0.234557 0.011430 -0.167249
v 0.182278 0.094789 0.044743
v 0.254014 0.023982 0.021539
v 0.077879 0.055423 0.129842
v 0.168114 0.046908 0.123255
v 0.221704 0.028909 0.112435
v -0.010737 0.075227 0.089415
v 0.231664 -0.007250 -0.123528
v 0.245297 -0.023061 0.004443
v 0.179703 -0.016207 -0.222451
v 0.191250 0.035101 -0.292733
v 0.038990 0.048764 -0.347833
v 0.047814 0.002923 -0.310342
v -0.130116 0.042377 -0.284159
v -0.105695 0.024599 -0.289402
v -0.140398 0.004271 -0.234603
v -0.159785 -0.003245 -0.140180
v -0.184712 0.035262 -0.162555
v -0.146607 0.041404 -0.252164
v -0.174427 0.049244 -0.031872
v -0.150654 -0.003931 -0.044896
v -0.182711 -0.076122 -0.058177
v 0.218588 -0.018740 0.110665
v 0.169728 -0.043924 0.220177
v 0.226902 0.046173 0.129192
v 0.121074 -0.039983 -0.241905
v 0.016702 -0.018110 -0.312847
v -0.130365 -0.126389 0.169078
v -0.095388 -0.163251 0.091654
v -0.240425 -0.113736 0.213367
v -0.203078 -0.127962 0.143870
v -0.115756 -0.119123 0.296136
v -0.192701 -0.100969 0.326084
v -0.104636 -0.135959 -0.001724
v -0.204979 -0.098929 0.034565
v -0.120694 -0.125096 -0.076786
v -0.117993 -0.059312 -0.121898
v -0.131625 -0.039989 -0.231449
v -0.090552 -0.012843 -0.288679
v -0.215866 -0.044677 0.070039
v -0.195900 -0.006531 0.152668
v -0.183500 0.003338 0.275688
v -0.140717 0.050024 0.384230
v -0.124525 0.072739 0.233808
v -0.062183 0.083783 0.263392
v -0.046776 0.073513 0.417835
v 0.014714 0.078305 0.371369
v 0.050328 0.062893 0.183703
v -0.182695 0.031597 0.041072
v -0.119632 0.051398 0.076212
v -0.063677 0.058491 0.127556
v 0.005689 0.064844 0.132212
v -0.190849 -0.017620 0.328920
v -0.242268 -0.051381 0.222073
v -0.163467 -0.045645 0.374787
v -0.144938 0.029259 0.406717
v -0.024781 -0.051385 0.392699
v -0.006251 0.023520 0.424629
v 0.084231 -0.042291 0.335942
v 0.103660 0.061207 0.334227
v 0.185522 -0.034624 0.300816
v 0.169252 0.051203 0.279069
vt 0.046638 0.250643
vt 0.146335 0.198557
vt 0.158396 0.252695
vt 0.113429 0.259634
vt 0.210397 0.228932
vt 0.200181 0.262856
vt 0.253272 0.278472
vt 0.213461 0.294042
vt 0.253058 0.364706
vt 0.212900 0.336150
vt 0.189388 0.389742
vt 0.171022 0.333796
vt 0.121197 0.370956
vt 0.125241 0.324546
vt 0.092253 0.302700
vt 0.054654 0.323279
vt 0.698745 0.631671
vt 0.722451 0.553654
vt 0.763139 0.534014
vt 0.745124 0.615020
vt 0.652663 0.683945
vt 0.702235 0.692981
vt 0.638942 0.761870
vt 0.691643 0.765924
vt 0.645439 0.828094
vt 0.722054 0.809820
vt 0.678714 0.873730
vt 0.777713 0.866369
vt 0.712716 0.917414
vt 0.747194 0.914104
vt 0.778607 0.779136
vt 0.798236 0.797907
vt 0.751702 0.732393
vt 0.769940 0.679749
vt 0.823614 0.539525
vt 0.809619 0.637122
vt 0.118754 0.114891
vt 0.187765 0.150711
vt 0.145922 0.100702
vt 0.197252 0.090716
vt 0.278774 0.144166
vt 0.336092 0.207541
vt 0.186733 0.411106
vt 0.079047 0.424055
vt 0.528614 0.807482
vt 0.480112 0.725129
vt 0.551800 0.750019
vt 0.553554 0.798225
vt 0.287885 0.429950
vt 0.466774 0.637581
vt 0.546883 0.654376
vt 0.393608 0.359523
vt 0.372051 0.436248
vt 0.468793 0.532795
vt 0.511586 0.548398
vt 0.374287 0.267590
vt 0.566579 0.767272
vt 0.580143 0.674620
vt 0.592146 0.844227
vt 0.009343 0.340547
vt 0.026809 0.225498
vt 0.562077 0.900434
vt 0.667803 0.931263
vt 0.658894 0.972202
vt 0.092807 0.120167
vt 0.764864 0.965995
vt 0.783553 0.981552
vt 0.809643 0.937806
vt 0.872860 0.887024
vt 0.882370 0.931013
vt 0.811182 0.970996
vt 0.105780 0.087994
vt 0.179497 0.064769
vt 0.294784 0.093271
vt 0.290690 0.037804
vt 0.886031 0.793861
vt 0.938449 0.830704
vt 0.607026 0.598923
vt 0.668490 0.533754
vt 0.523485 0.546911
vt 0.568181 0.564703
vt 0.636913 0.860739
vt 0.692359 0.924931
vt 0.871995 0.619834
vt 0.840011 0.668918
vt 0.942957 0.598015
vt 0.920295 0.644496
vt 0.877997 0.535489
vt 0.931953 0.527440
vt 0.834103 0.732445
vt 0.914616 0.727321
vt 0.830907 0.784182
vt 0.833321 0.839213
vt 0.795537 0.909060
vt 0.755450 0.939018
vt 0.966007 0.719224
vt 0.484112 0.086248
vt 0.591074 0.133800
vt 0.656885 0.219527
vt 0.531258 0.199634
vt 0.541866 0.258891
vt 0.653548 0.293668
vt 0.617993 0.337165
vt 0.449549 0.343647
vt 0.367535 0.090012
vt 0.389834 0.159632
vt 0.422213 0.225697
vt 0.411149 0.291871
vt 0.420329 0.023320
vt 0.981171 0.487661
vt 0.991898 0.594658
vt 0.566952 0.047493
vt 0.644458 0.133233
vt 0.930776 0.473578
vt 0.941773 0.403754
vt 0.832229 0.445820
vt 0.820053 0.378556
vt 0.745373 0.466557
vt 0.687938 0.398920
vt 0.686061 0.489899
vt 0.635302 0.457637
vt 0.684433 0.216685
vt 0.688250 0.333864
vt 0.521879 0.470600
vt 0.370973 0.509554
vt 0.582803 0.414880
vn -0.1484 0.7750 -0.6142
vn -0.4418 0.8924 -0.0913
vn -0.4708 0.8779 -0.0879
vn -0.2324 0.9251 -0.3004
vn -0.4630 0.8809 0.0978
vn -0.5573 0.8099 0.1831
vn -0.1904 0.9290 0.3172
vn -0.5187 0.7298 0.4453
vn 0.0479 0.9378 0.3437
vn -0.0629 0.9333 0.3536
vn 0.4873 0.8382 0.2446
vn 0.0601 0.9928 0.1034
vn 0.6238 0.7815 -0.0118
vn 0.0094 0.9995 -0.0311
vn 0.0228 0.9737 -0.2268
vn 0.4143 0.7200 -0.5568
vn 0.3996 -0.9140 0.0706
vn 0.4970 -0.8560 0.1423
vn 0.2273 -0.9308 0.2863
vn 0.1788 -0.9833 0.0354
vn 0.4060 -0.9136 -0.0195
vn 0.1931 -0.9797 -0.0541
vn 0.3903 -0.8955 -0.2140
vn 0.1426 -0.9695 -0.1991
vn 0.3504 -0.8734 -0.3383
vn 0.1184 -0.9635 -0.2400
vn 0.2558 -0.8435 -0.4723
vn -0.2474 -0.9173 -0.3121
vn 0.0433 -0.5201 -0.8530
vn -0.3684 -0.5836 -0.7237
vn 0.0511 -0.9342 -0.3530
vn -0.3062 -0.8658 -0.3958
vn 0.1495 -0.9641 -0.2194
vn 0.2222 -0.9750 -0.0020
vn 0.0884 -0.9376 0.3363
vn 0.1720 -0.9714 0.1637
vn -0.3381 0.7434 -0.5771
vn -0.0546 0.9980 -0.0313
vn -0.7779 -0.4643 -0.4234
vn -0.9241 0.3814 -0.0242
vn -0.2506 0.9676 0.0305
vn -0.0249 0.9863 0.1633
vn 0.7638 0.6352 0.1145
vn 0.9871 0.1449 -0.0674
vn 0.9941 0.0474 -0.0979
vn 0.9427 -0.2664 -0.2008
vn 0.4180 0.8905 0.1797
vn 0.8656 0.4966 0.0648
vn 0.0410 0.9949 0.0918
vn 0.1730 0.9761 0.1318
vn 0.6031 0.7180 0.3475
vn 0.0824 0.9849 0.1524
vn 0.7548 -0.6240 -0.2021
vn 0.8504 -0.5212 0.0716
vn 0.5649 -0.6653 -0.4881
vn 0.6951 -0.2271 -0.6821
vn 0.0212 -0.2444 -0.9694
vn 0.0745 -0.4608 -0.8844
vn -0.4790 -0.4286 -0.7661
vn -0.5008 -0.3301 -0.8002
vn -0.8086 -0.4392 -0.3914
vn -0.8848 -0.3851 -0.2623
vn -0.8908 -0.4516 -0.0502
vn -0.6590 -0.6641 -0.3532
vn -0.8938 0.4480 -0.0194
vn -0.9927 -0.0207 -0.1191
vn -0.8940 -0.3093 -0.3241
vn 0.8758 -0.4224 0.2335
vn 0.8343 -0.5463 0.0742
vn 0.7744 0.6123 0.1592
vn 0.4531 -0.6316 -0.6291
vn 0.1095 -0.2124 -0.9710
vn -0.0108 -0.9764 0.2159
vn -0.0566 -0.9979 0.0305
vn -0.7109 -0.6925 0.1228
vn -0.7371 -0.6538 -0.1707
vn -0.0093 -0.9175 0.3976
vn -0.5852 -0.5659 0.5808
vn -0.1848 -0.9578 -0.2199
vn -0.8247 -0.5081 -0.2486
vn -0.3154 -0.8359 -0.4492
vn -0.6469 -0.6461 -0.4050
vn -0.7801 -0.5305 -0.3317
vn -0.5031 -0.1941 -0.8422
vn -0.9647 0.1484 -0.2174
vn -0.7357 0.6772 0.0142
vn -0.7769 0.6246 0.0786
vn -0.6142 0.7044 0.3557
vn -0.4367 0.8996 -0.0063
vn -0.0475 0.9977 -0.0491
vn 0.0309 0.8429 0.5372
vn 0.3116 0.8893 0.3348
vn 0.1304 0.9913 0.0156
vn -0.8044 0.5930 -0.0354
vn -0.4337 0.8929 0.1210
vn -0.1392 0.9840 0.1110
vn 0.0402 0.9949 0.0925
vn -0.8972 0.3162 0.3082
vn -0.9745 0.2213 -0.0364
vn -0.2579 -0.5462 0.7970
vn -0.6297 0.1262 0.7665
vn 0.1765 -0.6080 0.7740
vn 0.2550 0.2837 0.9244
vn 0.4539 -0.4803 0.7505
vn 0.4965 0.6054 0.6221
vn 0.7705 -0.4522 0.4493
vn 0.7566 0.5244 0.3905
s 1
f 1/1/1 2/2/2 3/3/3 4/4/4
f 2/2/2 5/5/5 6/6/6 3/3/3
f 5/5/5 7/7/7 8/8/8 6/6/6
f 7/7/7 9/9/9 10/10/10 8/8/8
f 9/9/9 11/11/11 12/12/12 10/10/10
f 13/13/13 14/14/14 12/12/12 11/11/11
f 8/8/8 10/10/10 12/12/12 6/6/6
f 3/3/3 6/6/6 12/12/12 14/14/14
f 4/4/4 3/3/3 14/14/14 15/15/15
f 13/13/13 16/16/16 15/15/15 14/14/14
f 1/1/1 4/4/4 15/15/15 16/16/16
f 17/17/17 18/18/18 19/19/19 20/20/20
f 21/21/21 17/17/17 20/20/20 22/22/22
f 23/23/23 21/21/21 22/22/22 24/24/24
f 25/25/25 23/23/23 24/24/24 26/26/26
f 27/27/27 25/25/25 26/26/26 28/28/28
f 29/29/29 27/27/27 28/28/28 30/30/30
f 28/28/28 26/26/26 31/31/31 32/32/32
f 26/26/26 24/24/24 33/33/33 31/31/31
f 24/24/24 22/22/22 34/34/34 33/33/33
f 20/20/20 19/19/19 35/35/35 36/36/36
f 20/20/20 36/36/36 34/34/34 22/22/22
f 2/2/2 1/1/1 37/37/37 38/38/38
f 38/38/38 37/37/37 39/39/39 40/40/40
f 5/5/5 2/2/2 38/38/38 41/41/41
f 7/7/7 5/5/5 41/41/41 42/42/42
f 13/13/13 11/11/11 43/43/43 44/44/44
f 44/45/44 43/46/43 45/47/45 46/48/46
f 9/9/9 47/49/47 43/43/43 11/11/11
f 47/50/47 48/51/48 45/47/45 43/46/43
f 49/52/49 50/53/50 47/49/47 9/9/9
f 50/54/50 51/55/51 48/51/48 47/50/47
f 9/9/9 7/7/7 52/56/52 49/52/49
f 7/7/7 42/42/42 52/56/52
f 21/21/21 23/23/23 53/57/53 54/58/54
f 48/51/48 54/58/54 53/57/53 45/47/45
f 45/47/45 53/57/53 55/59/55 46/48/46
f 55/59/55 53/57/53 23/23/23 25/25/25
f 16/16/16 56/60/56 57/61/57 1/1/1
f 56/62/56 55/59/55 58/63/58 57/64/57
f 1/1/1 57/61/57 59/65/59 37/37/37
f 57/64/57 58/63/58 60/66/60 59/67/59
f 16/16/16 13/13/13 44/44/44 56/60/56
f 56/62/56 44/45/44 46/48/46 55/59/55
f 61/68/61 62/69/62 63/70/63 64/71/64
f 40/40/40 39/39/39 64/72/64 63/73/63
f 61/68/61 64/71/64 59/67/59 60/66/60
f 37/37/37 59/65/59 64/72/64 39/39/39
f 38/38/38 40/40/40 65/74/65 41/41/41
f 40/40/40 63/73/63 66/75/66 65/74/65
f 67/76/67 66/77/66 63/70/63 62/69/62
f 18/18/18 17/17/17 68/78/68 69/79/69
f 21/21/21 54/58/54 68/78/68 17/17/17
f 48/51/48 50/80/50 70/81/70
f 48/51/48 70/81/70 68/78/68 54/58/54
f 55/59/55 71/82/71 72/83/72 58/63/58
f 71/82/71 27/27/27 29/29/29 72/83/72
f 36/36/36 73/84/73 74/85/74 34/34/34
f 73/84/73 75/86/75 76/87/76 74/85/74
f 35/35/35 77/88/77 73/84/73 36/36/36
f 77/88/77 78/89/78 75/86/75 73/84/73
f 34/34/34 74/85/74 79/90/79 33/33/33
f 74/85/74 76/87/76 80/91/80 79/90/79
f 33/33/33 79/90/79 81/92/81 31/31/31
f 79/90/79 80/91/80 67/76/67 81/92/81
f 31/31/31 81/92/81 82/93/82 32/32/32
f 81/92/81 67/76/67 62/69/62 82/93/82
f 32/32/32 82/93/82 83/94/83 28/28/28
f 82/93/82 62/69/62 61/68/61 83/94/83
f 28/28/28 83/94/83 84/95/84 30/30/30
f 83/94/83 61/68/61 60/66/60 84/95/84
f 58/63/58 72/83/72 84/95/84 60/66/60
f 72/83/72 29/29/29 30/30/30 84/95/84
f 27/27/27 71/82/71 25/25/25
f 71/82/71 55/59/55 25/25/25
f 80/91/80 85/96/85 66/77/66 67/76/67
f 86/97/86 87/98/87 88/99/88 89/100/89
f 90/101/90 91/102/91 92/103/92 93/104/93
f 89/100/89 88/99/88 91/102/91 90/101/90
f 65/74/65 94/105/94 95/106/95 41/41/41
f 94/105/94 86/97/86 89/100/89 95/106/95
f 42/42/42 96/107/96 97/108/97 52/56/52
f 96/107/96 90/101/90 93/104/93 97/108/97
f 41/41/41 95/106/95 96/107/96 42/42/42
f 95/106/95 89/100/89 90/101/90 96/107/96
f 65/74/65 66/75/66 85/109/85 94/105/94
f 75/86/75 78/89/78 98/110/98 99/111/99
f 87/98/87 86/97/86 99/112/99 98/113/98
f 85/109/85 99/112/99 86/97/86 94/105/94
f 76/87/76 99/111/99 85/96/85 80/91/80
f 75/86/75 99/111/99 76/87/76
f 98/110/98 78/89/78 100/114/100 101/115/101
f 101/115/101 100/114/100 102/116/102 103/117/103
f 103/117/103 102/116/102 104/118/104 105/119/105
f 105/119/105 104/118/104 106/120/106 107/121/107
f 19/19/19 104/118/104 102/116/102 35/35/35
f 35/35/35 102/116/102 100/114/100 77/88/77
f 78/89/78 77/88/77 100/114/100
f 88/99/88 101/122/101 103/123/103 91/102/91
f 87/98/87 98/113/98 101/122/101 88/99/88
f 52/56/52 97/108/97 93/104/93 49/52/49
f 18/18/18 106/120/106 104/118/104 19/19/19
f 18/18/18 69/79/69 106/120/106
f 69/79/69 68/78/68 107/121/107 106/120/106
f 68/78/68 70/81/70 107/121/107
f 49/52/49 107/124/107 70/125/70 50/53/50
f 49/52/49 93/104/93 105/126/105 107/124/107
f 91/102/91 103/123/103 92/103/92
f 92/103/92 103/123/103 105/126/105 93/104/93
